ply
format ascii 1.0
comment VCGLIB generated
element vertex 16
property float x
property float y
property float z
element face 18
property list uchar int vertex_indices
end_header
-0.25 0 0.433013 
0.75 0 0.433013 
1.25 0 -0.433013 
0.75 0 -1.299038 
-0.25 0 -1.299038 
-0.75 0 -0.433013 
0.25 0 -0.433013 
-0.25 0 2.165064 
0.75 0 2.165064 
1.25 0 1.299038 
-0.75 0 1.299038 
0.25 0 1.299038 
-1.75 0 1.299038 
-1.75 0 -0.433013 
-2.25 0 0.433013 
-1.25 0 0.433013 
3 0 1 6 
3 1 2 6 
3 2 3 6 
3 3 4 6 
3 4 5 6 
3 5 0 6 
3 7 8 11 
3 8 9 11 
3 9 1 11 
3 1 0 11 
3 0 10 11 
3 10 7 11 
3 12 10 15 
3 10 0 15 
3 0 5 15 
3 5 13 15 
3 13 14 15 
3 14 12 15 
